<?xml version="1.0" encoding="utf-8"?>
<!-- Generator: Adobe Illustrator 19.1.0, SVG Export Plug-In . SVG Version: 6.00 Build 0)  -->
<svg version="1.1" id="Слой_1" xmlns="http://www.w3.org/2000/svg" xmlns:xlink="http://www.w3.org/1999/xlink" x="0px" y="0px"
	 viewBox="0 0 960 560" style="enable-background:new 0 0 960 560;" xml:space="preserve">
<g>
	<path style="fill: #fff;" d="M559.9,203.6c0,112.5-125.3,203.6-280,203.6c-24.3,0-47.7-2.4-70-6.4c-33,23.5-70.4,40.6-110.6,50.9
		c-10.7,2.8-22.3,4.8-34.2,6.4c-0.4,0-0.8,0-1.2,0c-6,0-11.5-4.8-12.7-11.5c-1.6-7.6,3.6-12.3,8-17.5c15.5-17.5,33-33,46.5-66
		C41.4,325.7,0,268,0,203.6C0,91.1,125.3,0,280,0S559.9,91.1,559.9,203.6z M50.9,203.6c0,43.7,29.4,85.9,80.3,115.3l38.6,22.3
		l-13.9,33.4c8.3-4.8,16.7-9.9,24.7-15.5l17.5-12.3l21.1,4c19.9,3.6,40.2,5.6,60.8,5.6c124.1,0,229.1-70,229.1-152.7
		S404,50.9,280,50.9S50.9,120.9,50.9,203.6z M653.4,530.9c4.4,5.2,9.5,9.9,8,17.5c-1.6,7.2-7.6,12.3-13.9,11.5
		c-11.9-1.6-23.5-3.6-34.2-6.4c-40.2-10.3-77.6-27.4-110.6-50.9c-22.3,4-45.7,6.4-70,6.4c-72,0-138-19.9-187.7-52.5
		c11.5,0.8,23.5,1.6,35,1.6c85.5,0,166.2-24.7,227.9-69.2c66.4-48.5,103-114.1,103-185.3c0-20.7-3.2-41-9.1-60.4
		c67.2,37,110.9,95.8,110.9,162.2c0,64.8-41.4,122.1-105.8,159.5C620.4,497.9,637.9,513.4,653.4,530.9z"/>
</g>
</svg>
