<svg xmlns="http://www.w3.org/2000/svg" viewBox="0 0 960 560"><path d="M683.5 203.6c0 112.5-125.3 203.6-280 203.6-24.3 0-47.7-2.4-70-6.4-33 23.5-70.4 40.6-110.6 50.9-10.7 2.8-22.3 4.8-34.2 6.4h-1.2c-6 0-11.5-4.8-12.7-11.5-1.6-7.6 3.6-12.3 8-17.5 15.5-17.5 33-33 46.5-66C165 325.7 123.6 268 123.6 203.6 123.6 91.1 248.9 0 403.6 0s279.9 91.1 279.9 203.6zm-509 0c0 43.7 29.4 85.9 80.3 115.3l38.6 22.3-13.9 33.4c8.3-4.8 16.7-9.9 24.7-15.5l17.5-12.3 21.1 4c19.9 3.6 40.2 5.6 60.8 5.6 124.1 0 229.1-70 229.1-152.7S527.6 50.9 403.6 50.9s-229.1 70-229.1 152.7zM777 530.9c4.4 5.2 9.5 9.9 8 17.5-1.6 7.2-7.6 12.3-13.9 11.5-11.9-1.6-23.5-3.6-34.2-6.4-40.2-10.3-77.6-27.4-110.6-50.9-22.3 4-45.7 6.4-70 6.4-72 0-138-19.9-187.7-52.5 11.5.8 23.5 1.6 35 1.6 85.5 0 166.2-24.7 227.9-69.2 66.4-48.5 103-114.1 103-185.3 0-20.7-3.2-41-9.1-60.4 67.2 37 110.9 95.8 110.9 162.2 0 64.8-41.4 122.1-105.8 159.5 13.5 33 31 48.5 46.5 66z" fill="#fff"/></svg>