<svg xmlns="http://www.w3.org/2000/svg" viewBox="0 0 960 560"><path d="M480 560c-107.9 0-224-25.5-224-81.5 0-43.3 64.6-63.6 118.7-72.9 11.1-1.9 21.6 5.4 23.6 16.5 1.9 11.1-5.4 21.6-16.5 23.5-65.5 11.5-84 29.3-85 33.1 3.2 10.8 64.3 40.4 183.3 40.4s180.1-29.6 183.3-41c-1-3.2-19.4-21-85-32.5-11.1-1.9-18.5-12.4-16.5-23.5 1.9-11.1 12.4-18.5 23.6-16.5 54.1 9.2 118.7 29.6 118.7 72.9-.2 56-116.3 81.5-224.2 81.5zm101.8-244.4c0 11.1-9.2 20.4-20.4 20.4H541v122.2c0 11.1-9.2 20.4-20.4 20.4h-81.5c-11.1 0-20.4-9.2-20.4-20.4V336h-20.4c-11.1 0-20.4-9.2-20.4-20.4V193.5c0-22.6 18.1-40.7 40.7-40.7h122.2c22.6 0 40.7 18.1 40.7 40.7v122.1zM480 142.5c-39.5 0-71.3-31.8-71.3-71.3S440.5 0 480 0s71.3 31.8 71.3 71.3-31.8 71.2-71.3 71.2z" fill="#fff"/></svg>