<?xml version="1.0" encoding="utf-8"?>
<!-- Generator: Adobe Illustrator 19.2.1, SVG Export Plug-In . SVG Version: 6.00 Build 0)  -->
<svg version="1.1" id="Слой_1" xmlns="http://www.w3.org/2000/svg" xmlns:xlink="http://www.w3.org/1999/xlink" x="0px" y="0px"
	 viewBox="0 0 960 560" style="enable-background:new 0 0 960 560;" xml:space="preserve">
<g>
	<path style="fill:#fff;" d="M480,560c-107.9,0-224-25.5-224-81.5c0-43.3,64.6-63.6,118.7-72.9c11.1-1.9,21.6,5.4,23.6,16.5
		c1.9,11.1-5.4,21.6-16.5,23.5c-65.5,11.5-84,29.3-85,33.1c3.2,10.8,64.3,40.4,183.3,40.4s180.1-29.6,183.3-41
		c-1-3.2-19.4-21-85-32.5c-11.1-1.9-18.5-12.4-16.5-23.5c1.9-11.1,12.4-18.5,23.6-16.5c54.1,9.2,118.7,29.6,118.7,72.9
		C704,534.5,587.9,560,480,560z M581.8,315.6c0,11.1-9.2,20.4-20.4,20.4h-20.4v122.2c0,11.1-9.2,20.4-20.4,20.4h-81.5
		c-11.1,0-20.4-9.2-20.4-20.4V336h-20.4c-11.1,0-20.4-9.2-20.4-20.4V193.5c0-22.6,18.1-40.7,40.7-40.7h122.2
		c22.6,0,40.7,18.1,40.7,40.7V315.6z M480,142.5c-39.5,0-71.3-31.8-71.3-71.3S440.5,0,480,0s71.3,31.8,71.3,71.3
		S519.5,142.5,480,142.5z"/>
</g>
</svg>
