<?xml version="1.0" encoding="utf-8"?>
<!-- Generator: Adobe Illustrator 15.0.0, SVG Export Plug-In . SVG Version: 6.00 Build 0)  -->
<!DOCTYPE svg PUBLIC "-//W3C//DTD SVG 1.1//EN" "http://www.w3.org/Graphics/SVG/1.1/DTD/svg11.dtd">
<svg version="1.1" id="Слой_1" xmlns="http://www.w3.org/2000/svg" xmlns:xlink="http://www.w3.org/1999/xlink" x="0px" y="0px"
	 width="70px" height="20px" viewBox="0 0 20 20" enable-background="new 0 0 20 20" xml:space="preserve">
<path fill-rule="evenodd" fill="#000000" d="M0,5.49927l1.49921,1.49908l1.49921-1.49908L1.49921,4L0,5.49927z M4,5.49927
	l1.49921,1.49908l1.49921-1.49908L5.49921,4L4,5.49927z M8,5.49927l1.49921,1.49908l1.49921-1.49908L9.49921,4L8,5.49927z
	 M12,5.49927l1.49921,1.49908l1.49921-1.49908L13.49921,4L12,5.49927z M17.49921,4L16,5.49927l1.49921,1.49908l1.49921-1.49908
	L17.49921,4z M12,1.49927l1.49921,1.49908l1.49921-1.49908L13.49921,0L12,1.49927z M12,9.49927l1.49921,1.49908l1.49921-1.49908
	L13.49921,8L12,9.49927z"/>
</svg>
